<svg xmlns="http://www.w3.org/2000/svg" width="1920" height="400" aria-label="ON24 webinar platform integration" viewBox="0 0 1920 400"><path fill="#f2f6fa" d="M0 0h1920v400H0z"/><path fill="#1c3553" d="M0 340h1920v60H0z"/><rect width="360" height="180" x="120" y="110" fill="#fff" rx="22"/><rect width="260" height="30" x="160" y="145" fill="#1f5f8b" rx="6"/><rect width="220" height="18" x="160" y="190" fill="#b7c7d8" rx="6"/><rect width="200" height="18" x="160" y="220" fill="#b7c7d8" rx="6"/><rect width="560" height="200" x="560" y="100" fill="#2a9d8f" rx="22"/><rect width="200" height="36" x="600" y="135" fill="#e9f5f2" rx="10"/><rect width="200" height="36" x="830" y="135" fill="#e9f5f2" rx="10"/><rect width="360" height="28" x="660" y="195" fill="#e9f5f2" rx="14"/><rect width="90" height="10" x="600" y="255" fill="#b7c7d8" rx="5"/><rect width="120" height="10" x="710" y="255" fill="#b7c7d8" rx="5"/><rect width="100" height="10" x="850" y="255" fill="#b7c7d8" rx="5"/><rect width="360" height="200" x="1160" y="100" fill="#fff" rx="22"/><rect width="280" height="36" x="1200" y="150" fill="#b7c7d8" rx="18"/><rect width="240" height="18" x="1200" y="200" fill="#b7c7d8" rx="6"/><rect width="300" height="220" x="1480" y="90" fill="#fff" rx="22"/><rect width="220" height="110" x="1520" y="130" fill="#1f5f8b" rx="12"/><rect width="100" height="14" x="1520" y="255" fill="#e76f51" rx="7"/><rect width="80" height="14" x="1640" y="255" fill="#b7c7d8" rx="7"/><path d="m1670.628 51.583-.684-.495c4.572-6.831 9.369-10.8 18.306-10.8 9.135 0 15.759 6.102 15.759 14.4v.153c0 7.416-3.915 11.979-12.852 19.746l-13.59 12.069h26.946v5.247h-31.707a3.79 3.79 0 0 1-3.789-3.789v-.657l18.423-16.317c7.767-6.984 10.611-10.899 10.611-15.975.009-5.976-4.707-9.765-10.251-9.765-4.5 0-7.785 1.8-10.935 5.31l-.639.684a3.79 3.79 0 0 1-5.355.315z" class="cls-1"/><path d="M1734.825 91.849A3.79 3.79 0 0 1 1731 88.06v-8.289h-24.147a3.79 3.79 0 0 1-3.6-2.7l-.414-1.512 28.8-34.947h5.094v34.362h7.767v4.797h-7.83v12.078zm-3.753-16.875V48.757l-21.366 26.217z" class="cls-1"/><path fill="#3040e8" d="M1629.003 56.848v35.001h-5.742a3.015 3.015 0 0 1-3.312-3.321V40.774h6.507a3.82 3.82 0 0 1 2.925 1.35l24.606 32.625V40.774l5.76.045a3.015 3.015 0 0 1 3.312 3.312v47.7h-5.652a3.83 3.83 0 0 1-2.988-1.44zm-23.805-11.214.063.099a19.44 19.44 0 0 1 3.6 14.067c-1.161 10.053-9.342 17.289-18.207 16.2-7.047-.9-12.402-6.768-13.689-14.175-2.808 6.525-.765 13.788 4.752 18.531a13.8 13.8 0 0 0 5.535 3.105h-.972a18.63 18.63 0 1 1 16.578-28.8l.117.126c-2.394-8.541-8.838-14.787-19.494-14.787a20.16 20.16 0 0 0-9.738 2.493A26.67 26.67 0 0 0 1560 65.758c0 14.742 12.204 26.766 27.243 26.766s27.252-12.024 27.252-26.766a26.48 26.48 0 0 0-9.261-20.097z"/></svg>
