<svg xmlns="http://www.w3.org/2000/svg" width="1920" height="400" aria-label="Documentation overview banner" viewBox="0 0 1920 400"><path fill="#f2f6fa" d="M0 0h1920v400H0z"/><path fill="#1c3553" d="M0 340h1920v60H0z"/><rect width="1320" height="220" x="300" y="90" fill="#fff" rx="22"/><rect width="360" height="170" x="360" y="120" fill="#e2ecf4" rx="16"/><rect width="360" height="170" x="760" y="120" fill="#e2ecf4" rx="16"/><rect width="360" height="170" x="1160" y="120" fill="#e2ecf4" rx="16"/><rect width="280" height="20" x="400" y="150" fill="#1f5f8b" rx="6"/><rect width="220" height="16" x="400" y="180" fill="#b7c7d8" rx="6"/><rect width="260" height="16" x="400" y="205" fill="#b7c7d8" rx="6"/><rect width="280" height="20" x="800" y="150" fill="#1f5f8b" rx="6"/><rect width="240" height="16" x="800" y="180" fill="#b7c7d8" rx="6"/><rect width="260" height="16" x="800" y="205" fill="#b7c7d8" rx="6"/><rect width="280" height="20" x="1200" y="150" fill="#1f5f8b" rx="6"/><rect width="240" height="16" x="1200" y="180" fill="#b7c7d8" rx="6"/><rect width="260" height="16" x="1200" y="205" fill="#b7c7d8" rx="6"/><rect width="140" height="12" x="340" y="300" fill="#b7c7d8" rx="6"/><rect width="140" height="12" x="510" y="300" fill="#b7c7d8" rx="6"/><rect width="140" height="12" x="680" y="300" fill="#b7c7d8" rx="6"/><rect width="140" height="12" x="1180" y="300" fill="#b7c7d8" rx="6"/><rect width="140" height="12" x="1350" y="300" fill="#b7c7d8" rx="6"/><rect width="140" height="12" x="1520" y="300" fill="#b7c7d8" rx="6"/></svg>
