<svg xmlns="http://www.w3.org/2000/svg" width="1920" height="400" aria-label="Governance processes overview banner" viewBox="0 0 1920 400"><path fill="#f2f6fa" d="M0 0h1920v400H0z"/><path fill="#1c3553" d="M0 340h1920v60H0z"/><rect width="1400" height="240" x="260" y="80" fill="#e2ecf4" rx="22"/><rect width="440" height="140" x="740" y="130" fill="#fff" rx="18"/><rect width="160" height="40" x="780" y="160" fill="#1f5f8b" rx="8"/><rect width="160" height="40" x="960" y="160" fill="#1f5f8b" rx="8"/><rect width="280" height="16" x="820" y="220" fill="#b7c7d8" rx="8"/><rect width="220" height="80" x="340" y="140" fill="#fff" rx="14"/><rect width="180" height="30" x="360" y="165" fill="#2a9d8f" rx="6"/><rect width="220" height="60" x="340" y="240" fill="#fff" rx="14"/><rect width="160" height="24" x="360" y="260" fill="#2a9d8f" rx="6"/><rect width="220" height="80" x="1380" y="140" fill="#fff" rx="14"/><rect width="180" height="30" x="1400" y="165" fill="#2a9d8f" rx="6"/><rect width="220" height="60" x="1380" y="240" fill="#fff" rx="14"/><rect width="160" height="24" x="1400" y="260" fill="#2a9d8f" rx="6"/><rect width="180" height="10" x="560" y="180" fill="#b7c7d8" rx="5"/><rect width="180" height="10" x="1180" y="180" fill="#b7c7d8" rx="5"/><rect width="180" height="10" x="560" y="260" fill="#b7c7d8" rx="5"/><rect width="180" height="10" x="1180" y="260" fill="#b7c7d8" rx="5"/></svg>
