<svg xmlns="http://www.w3.org/2000/svg" width="1920" height="400" aria-label="Announcements banner" viewBox="0 0 1920 400"><path fill="#f2f6fa" d="M0 0h1920v400H0z"/><path fill="#1c3553" d="M0 340h1920v60H0z"/><rect width="1180" height="220" x="260" y="90" fill="#fff" rx="22"/><rect width="520" height="28" x="320" y="140" fill="#1f5f8b" rx="6"/><rect width="640" height="18" x="320" y="180" fill="#e2ecf4" rx="6"/><rect width="580" height="18" x="320" y="210" fill="#e2ecf4" rx="6"/><rect width="120" height="14" x="320" y="245" fill="#b7c7d8" rx="7"/><rect width="120" height="14" x="460" y="245" fill="#b7c7d8" rx="7"/><rect width="120" height="14" x="600" y="245" fill="#b7c7d8" rx="7"/><g transform="translate(1480 150)"><rect width="70" height="40" y="20" fill="#1f5f8b" rx="8"/><path fill="#1f5f8b" d="m70 20 50-20v80L70 60z"/><rect width="16" height="20" x="-16" y="30" fill="#b7c7d8" rx="4"/></g><rect width="60" height="12" x="1460" y="150" fill="#b7c7d8" rx="6"/><rect width="100" height="12" x="1440" y="180" fill="#b7c7d8" rx="6"/><rect width="140" height="12" x="1420" y="210" fill="#b7c7d8" rx="6"/></svg>
