<svg xmlns="http://www.w3.org/2000/svg" width="1920" height="400" aria-label="Asides entity type banner" viewBox="0 0 1920 400"><path fill="#f2f6fa" d="M0 0h1920v400H0z"/><path fill="#1c3553" d="M0 340h1920v60H0z"/><rect width="1200" height="220" x="260" y="90" fill="#fff" rx="22"/><rect width="520" height="28" x="320" y="130" fill="#1f5f8b" rx="6"/><rect width="760" height="18" x="320" y="170" fill="#e2ecf4" rx="6"/><rect width="700" height="18" x="320" y="200" fill="#e2ecf4" rx="6"/><rect width="16" height="16" x="880" y="132" fill="#b7c7d8" rx="8"/><rect width="16" height="16" x="960" y="202" fill="#b7c7d8" rx="8"/><rect width="320" height="180" x="1480" y="110" fill="#e2ecf4" rx="20"/><rect width="240" height="36" x="1520" y="140" fill="#2a9d8f" rx="8"/><rect width="240" height="36" x="1520" y="190" fill="#2a9d8f" rx="8"/><rect width="180" height="28" x="1520" y="240" fill="#b7c7d8" rx="6"/><rect width="40" height="10" x="1420" y="150" fill="#b7c7d8" rx="5"/><rect width="40" height="10" x="1420" y="200" fill="#b7c7d8" rx="5"/></svg>
