<svg xmlns="http://www.w3.org/2000/svg" width="1920" height="400" aria-label="Drupal module for brochure media customizations" viewBox="0 0 1920 400"><path fill="#f2f6fa" d="M0 0h1920v400H0z"/><path fill="#1c3553" d="M0 340h1920v60H0z"/><rect width="420" height="200" x="120" y="100" fill="#fff" rx="22"/><rect width="140" height="90" x="160" y="140" fill="#e2ecf4" rx="10"/><rect width="140" height="90" x="320" y="140" fill="#e2ecf4" rx="10"/><rect width="180" height="30" x="240" y="240" fill="#b7c7d8" rx="6"/><circle cx="190" cy="170" r="10" fill="#1f5f8b"/><path fill="#1f5f8b" d="m180 210 20-25 20 25z"/><rect width="520" height="180" x="600" y="110" fill="#2a9d8f" rx="22"/><rect width="180" height="36" x="640" y="145" fill="#e9f5f2" rx="8"/><rect width="180" height="36" x="840" y="145" fill="#e9f5f2" rx="8"/><rect width="320" height="28" x="700" y="210" fill="#e9f5f2" rx="8"/><rect width="60" height="10" x="640" y="255" fill="#b7c7d8" rx="5"/><rect width="100" height="10" x="720" y="255" fill="#b7c7d8" rx="5"/><rect width="80" height="10" x="840" y="255" fill="#b7c7d8" rx="5"/><rect width="540" height="220" x="1260" y="90" fill="#fff" rx="22"/><rect width="460" height="110" x="1300" y="120" fill="#1f5f8b" rx="14"/><rect width="200" height="20" x="1300" y="250" fill="#e2ecf4" rx="6"/><rect width="160" height="20" x="1520" y="250" fill="#e2ecf4" rx="6"/></svg>
