<svg xmlns="http://www.w3.org/2000/svg" width="1920" height="400" aria-label="Drupal module for dynamic call to action buttons" viewBox="0 0 1920 400"><path fill="#f2f6fa" d="M0 0h1920v400H0z"/><path fill="#1c3553" d="M0 340h1920v60H0z"/><rect width="520" height="220" x="120" y="90" fill="#fff" rx="22"/><rect width="360" height="28" x="160" y="130" fill="#1f5f8b" rx="6"/><rect width="420" height="18" x="160" y="170" fill="#e2ecf4" rx="6"/><rect width="380" height="18" x="160" y="200" fill="#e2ecf4" rx="6"/><rect width="520" height="180" x="700" y="110" fill="#2a9d8f" rx="22"/><rect width="160" height="36" x="740" y="145" fill="#e9f5f2" rx="18"/><rect width="160" height="36" x="920" y="145" fill="#e9f5f2" rx="18"/><rect width="260" height="30" x="820" y="200" fill="#e9f5f2" rx="15"/><rect width="80" height="10" x="740" y="255" fill="#b7c7d8" rx="5"/><rect width="120" height="10" x="840" y="255" fill="#b7c7d8" rx="5"/><rect width="100" height="10" x="980" y="255" fill="#b7c7d8" rx="5"/><rect width="420" height="120" x="1320" y="140" fill="#fff" rx="22"/><rect width="300" height="50" x="1380" y="175" fill="#e76f51" rx="25"/><rect width="120" height="14" x="1380" y="245" fill="#b7c7d8" rx="7"/><rect width="120" height="14" x="1520" y="245" fill="#b7c7d8" rx="7"/></svg>
