<svg xmlns="http://www.w3.org/2000/svg" width="1920" height="400" aria-label="Drupal campaign landing page builder module banner" viewBox="0 0 1920 400"><path fill="#f2f6fa" d="M0 0h1920v400H0z"/><path fill="#1c3553" d="M0 340h1920v60H0z"/><rect width="360" height="200" x="120" y="100" fill="#fff" rx="22"/><rect width="280" height="32" x="160" y="140" fill="#e2ecf4" rx="8"/><rect width="280" height="32" x="160" y="185" fill="#e2ecf4" rx="8"/><rect width="200" height="26" x="160" y="230" fill="#b7c7d8" rx="6"/><rect width="520" height="180" x="560" y="110" fill="#2a9d8f" rx="22"/><rect width="440" height="40" x="600" y="145" fill="#e9f5f2" rx="10"/><rect width="440" height="36" x="600" y="200" fill="#e9f5f2" rx="10"/><rect width="80" height="10" x="640" y="255" fill="#b7c7d8" rx="5"/><rect width="120" height="10" x="740" y="255" fill="#b7c7d8" rx="5"/><rect width="60" height="10" x="880" y="255" fill="#b7c7d8" rx="5"/><rect width="640" height="240" x="1160" y="80" fill="#fff" rx="22"/><rect width="560" height="80" x="1200" y="110" fill="#1f5f8b" rx="14"/><rect width="360" height="24" x="1200" y="210" fill="#e2ecf4" rx="6"/><rect width="320" height="24" x="1200" y="245" fill="#e2ecf4" rx="6"/><rect width="190" height="30" x="1550" y="245" fill="#e76f51" rx="15"/></svg>
