<svg xmlns="http://www.w3.org/2000/svg" width="1920" height="400" aria-label="Drupal module for cookie management" viewBox="0 0 1920 400"><path fill="#f2f6fa" d="M0 0h1920v400H0z"/><path fill="#1c3553" d="M0 340h1920v60H0z"/><rect width="420" height="200" x="120" y="100" fill="#fff" rx="22"/><rect width="300" height="30" x="160" y="140" fill="#1f5f8b" rx="6"/><rect width="260" height="26" x="160" y="185" fill="#e2ecf4" rx="6"/><rect width="220" height="26" x="160" y="225" fill="#e2ecf4" rx="6"/><rect width="520" height="180" x="600" y="110" fill="#2a9d8f" rx="22"/><rect width="160" height="36" x="640" y="145" fill="#e9f5f2" rx="8"/><rect width="160" height="36" x="820" y="145" fill="#e9f5f2" rx="8"/><rect width="80" height="36" x="1000" y="145" fill="#e9f5f2" rx="8"/><rect width="320" height="28" x="700" y="205" fill="#e9f5f2" rx="8"/><rect width="440" height="10" x="640" y="255" fill="#b7c7d8" rx="5"/><rect width="420" height="200" x="1260" y="100" fill="#fff" rx="22"/><rect width="120" height="36" x="1300" y="135" fill="#2a9d8f" rx="18"/><rect width="120" height="36" x="1440" y="135" fill="#2a9d8f" rx="18"/><rect width="120" height="36" x="1300" y="190" fill="#9ca3af" rx="18"/><rect width="120" height="36" x="1440" y="190" fill="#9ca3af" rx="18"/><rect width="16" height="16" x="1580" y="145" fill="#2a9d8f" rx="8"/><rect width="16" height="16" x="1580" y="200" fill="#9ca3af" rx="8"/></svg>
