<svg xmlns="http://www.w3.org/2000/svg" width="1920" height="400" aria-label="Custom Drupal module managing Salesforce integrations" viewBox="0 0 1920 400"><path fill="#f2f6fa" d="M0 0h1920v400H0z"/><path fill="#1c3553" d="M0 340h1920v60H0z"/><rect width="700" height="220" x="80" y="90" fill="#fff" rx="22"/><rect width="600" height="60" x="130" y="120" fill="#e2ecf4" rx="14"/><rect width="180" height="30" x="160" y="135" fill="#1f5f8b" rx="6"/><rect width="180" height="30" x="360" y="135" fill="#1f5f8b" rx="6"/><rect width="460" height="70" x="200" y="200" fill="#2a9d8f" rx="16"/><rect width="120" height="30" x="230" y="220" fill="#e9f5f2" rx="6"/><rect width="120" height="30" x="370" y="220" fill="#e9f5f2" rx="6"/><rect width="40" height="180" x="820" y="110" fill="#b7c7d8" rx="20"/><rect width="820" height="220" x="900" y="90" fill="#fff" rx="22"/><rect width="700" height="80" x="960" y="120" fill="#e2ecf4" rx="16"/><rect width="200" height="30" x="1000" y="145" fill="#1f5f8b" rx="6"/><rect width="200" height="30" x="1220" y="145" fill="#1f5f8b" rx="6"/><rect width="160" height="50" x="1000" y="230" fill="#e76f51" rx="10"/><rect width="160" height="50" x="1180" y="230" fill="#e76f51" rx="10"/><rect width="160" height="50" x="1360" y="230" fill="#e76f51" rx="10"/><rect width="40" height="12" x="760" y="180" fill="#b7c7d8" rx="6"/><rect width="40" height="12" x="860" y="180" fill="#b7c7d8" rx="6"/><rect width="40" height="12" x="760" y="205" fill="#b7c7d8" rx="6"/><rect width="40" height="12" x="860" y="205" fill="#b7c7d8" rx="6"/></svg>
