<svg xmlns="http://www.w3.org/2000/svg" width="1920" height="400" aria-label="Drupal module providing extensible data layer enrichment" viewBox="0 0 1920 400"><path fill="#f2f6fa" d="M0 0h1920v400H0z"/><path fill="#1c3553" d="M0 340h1920v60H0z"/><rect width="460" height="220" x="120" y="90" fill="#fff" rx="22"/><rect width="300" height="28" x="160" y="130" fill="#1f5f8b" rx="6"/><rect width="360" height="18" x="160" y="170" fill="#e2ecf4" rx="6"/><rect width="320" height="18" x="160" y="200" fill="#e2ecf4" rx="6"/><rect width="560" height="180" x="660" y="110" fill="#2a9d8f" rx="22"/><rect width="180" height="36" x="700" y="145" fill="#e9f5f2" rx="8"/><rect width="180" height="36" x="900" y="145" fill="#e9f5f2" rx="8"/><rect width="220" height="28" x="740" y="200" fill="#e9f5f2" rx="8"/><rect width="180" height="28" x="980" y="200" fill="#e9f5f2" rx="8"/><rect width="80" height="10" x="700" y="255" fill="#b7c7d8" rx="5"/><rect width="120" height="10" x="800" y="255" fill="#b7c7d8" rx="5"/><rect width="100" height="10" x="940" y="255" fill="#b7c7d8" rx="5"/><rect width="80" height="10" x="1060" y="255" fill="#b7c7d8" rx="5"/><rect width="500" height="220" x="1300" y="90" fill="#fff" rx="22"/><rect width="420" height="24" x="1340" y="130" fill="#1f5f8b" rx="6"/><rect width="360" height="20" x="1340" y="170" fill="#b7c7d8" rx="6"/><rect width="390" height="20" x="1340" y="205" fill="#b7c7d8" rx="6"/><rect width="300" height="20" x="1340" y="240" fill="#b7c7d8" rx="6"/></svg>
