<svg xmlns="http://www.w3.org/2000/svg" width="1920" height="400" aria-label="Drupal module for dates and timezone management" viewBox="0 0 1920 400"><path fill="#f2f6fa" d="M0 0h1920v400H0z"/><path fill="#1c3553" d="M0 340h1920v60H0z"/><rect width="320" height="180" x="120" y="110" fill="#fff" rx="20"/><rect width="240" height="30" x="160" y="150" fill="#1f5f8b" rx="6"/><rect width="180" height="30" x="160" y="200" fill="#1f5f8b" rx="6"/><rect width="100" height="16" x="160" y="245" fill="#b7c7d8" rx="8"/><rect width="100" height="16" x="270" y="245" fill="#b7c7d8" rx="8"/><rect width="300" height="220" x="500" y="90" fill="#e2ecf4" rx="22"/><circle cx="650" cy="180" r="56" fill="#1f5f8b"/><rect width="56" height="8" x="622" y="176" fill="#eef4f8" rx="4"/><rect width="8" height="40" x="646" y="140" fill="#eef4f8" rx="4"/><rect width="60" height="12" x="540" y="260" fill="#b7c7d8" rx="6"/><rect width="60" height="12" x="620" y="260" fill="#b7c7d8" rx="6"/><rect width="60" height="12" x="700" y="260" fill="#b7c7d8" rx="6"/><rect width="520" height="160" x="840" y="120" fill="#2a9d8f" rx="22"/><rect width="200" height="40" x="880" y="155" fill="#e9f5f2" rx="8"/><rect width="200" height="40" x="1100" y="155" fill="#e9f5f2" rx="8"/><rect width="280" height="30" x="960" y="215" fill="#e9f5f2" rx="8"/><rect width="360" height="180" x="1400" y="110" fill="#fff" rx="20"/><ellipse cx="1460" cy="150" fill="#1f5f8b" rx="26" ry="10"/><path fill="#1f5f8b" d="M1434 150h52v26h-52z"/><ellipse cx="1460" cy="176" fill="#1f5f8b" rx="26" ry="10"/><rect width="200" height="20" x="1505" y="210" fill="#1f5f8b" rx="6"/><rect width="160" height="20" x="1505" y="245" fill="#1f5f8b" rx="6"/></svg>
