<svg xmlns="http://www.w3.org/2000/svg" width="1920" height="400" aria-label="Drupal module providing a degree finder for navigating academic programs" viewBox="0 0 1920 400"><path fill="#f2f6fa" d="M0 0h1920v400H0z"/><path fill="#1c3553" d="M0 340h1920v60H0z"/><rect width="300" height="60" x="120" y="100" fill="#fff" rx="14"/><rect width="200" height="20" x="150" y="120" fill="#e2ecf4" rx="10"/><circle cx="365" cy="130" r="8" fill="#1f5f8b"/><rect width="300" height="130" x="120" y="180" fill="#fff" rx="22"/><rect width="220" height="20" x="150" y="215" fill="#e2ecf4" rx="6"/><rect width="180" height="20" x="150" y="245" fill="#e2ecf4" rx="6"/><rect width="200" height="20" x="150" y="275" fill="#e2ecf4" rx="6"/><rect width="560" height="180" x="500" y="110" fill="#2a9d8f" rx="22"/><rect width="200" height="36" x="540" y="145" fill="#e9f5f2" rx="18"/><rect width="200" height="36" x="760" y="145" fill="#e9f5f2" rx="18"/><rect width="360" height="30" x="600" y="200" fill="#e9f5f2" rx="15"/><rect width="80" height="10" x="540" y="255" fill="#b7c7d8" rx="5"/><rect width="120" height="10" x="640" y="255" fill="#b7c7d8" rx="5"/><rect width="100" height="10" x="780" y="255" fill="#b7c7d8" rx="5"/><rect width="80" height="10" x="900" y="255" fill="#b7c7d8" rx="5"/><rect width="300" height="200" x="1120" y="100" fill="#fff" rx="22"/><rect width="240" height="24" x="1150" y="135" fill="#e2ecf4" rx="6"/><rect width="240" height="24" x="1150" y="170" fill="#e2ecf4" rx="6"/><rect width="240" height="24" x="1150" y="205" fill="#e2ecf4" rx="6"/><rect width="340" height="180" x="1480" y="110" fill="#fff" rx="22"/><rect width="260" height="32" x="1520" y="140" fill="#1f5f8b" rx="8"/><rect width="200" height="18" x="1520" y="185" fill="#b7c7d8" rx="6"/><rect width="180" height="18" x="1520" y="215" fill="#b7c7d8" rx="6"/></svg>
