<svg xmlns="http://www.w3.org/2000/svg" width="1920" height="400" aria-label="Deprecated Drupal module banner" viewBox="0 0 1920 400"><path fill="#f7f7f7" d="M0 0h1920v400H0z"/><path fill="#6b7280" d="M0 340h1920v60H0z"/><rect width="1200" height="200" x="120" y="100" fill="#fff" rx="22"/><rect width="520" height="60" x="180" y="140" fill="#e5e7eb" rx="12"/><rect width="180" height="30" x="200" y="155" fill="#9ca3af" rx="6"/><rect width="180" height="30" x="400" y="155" fill="#9ca3af" rx="6"/><rect width="520" height="50" x="180" y="220" fill="#e5e7eb" rx="12"/><rect width="160" height="20" x="200" y="235" fill="#9ca3af" rx="6"/><rect width="160" height="20" x="380" y="235" fill="#9ca3af" rx="6"/><rect width="80" height="10" x="740" y="175" fill="#d1d5db" rx="5"/><rect width="80" height="10" x="740" y="205" fill="#d1d5db" rx="5"/><rect width="420" height="160" x="1380" y="120" fill="#fef2f2" rx="20"/><g transform="translate(1420 160)"><circle cx="32" cy="32" r="32" fill="#dc2626"/><rect width="6" height="26" x="29" y="14" fill="#fff" rx="3"/><rect width="6" height="6" x="29" y="44" fill="#fff" rx="3"/></g><text x="1500" y="200" fill="#991b1b" font-family="system-ui, -apple-system, Segoe UI, Roboto, sans-serif" font-size="28" font-weight="600">Deprecated</text></svg>
