<svg xmlns="http://www.w3.org/2000/svg" width="1920" height="400" aria-label="Drupal module extending diff functionality across entities and layout builder" viewBox="0 0 1920 400"><path fill="#f2f6fa" d="M0 0h1920v400H0z"/><path fill="#1c3553" d="M0 340h1920v60H0z"/><rect width="420" height="220" x="120" y="90" fill="#fff" rx="22"/><rect width="300" height="30" x="160" y="130" fill="#1f5f8b" rx="6"/><rect width="260" height="20" x="160" y="175" fill="#e2ecf4" rx="6"/><rect width="280" height="20" x="160" y="205" fill="#e2ecf4" rx="6"/><rect width="420" height="180" x="580" y="110" fill="#fff" rx="22"/><rect width="180" height="36" x="620" y="145" fill="#e2ecf4" rx="8"/><rect width="140" height="36" x="820" y="145" fill="#e2ecf4" rx="8"/><rect width="220" height="28" x="700" y="210" fill="#b7c7d8" rx="8"/><rect width="420" height="180" x="1040" y="110" fill="#2a9d8f" rx="22"/><rect width="160" height="36" x="1080" y="145" fill="#e9f5f2" rx="8"/><rect width="160" height="36" x="1260" y="145" fill="#e9f5f2" rx="8"/><rect width="240" height="28" x="1140" y="210" fill="#e9f5f2" rx="8"/><rect width="80" height="10" x="1080" y="255" fill="#b7c7d8" rx="5"/><rect width="120" height="10" x="1180" y="255" fill="#b7c7d8" rx="5"/><rect width="80" height="10" x="1320" y="255" fill="#b7c7d8" rx="5"/><rect width="300" height="220" x="1500" y="90" fill="#fff" rx="22"/><rect width="240" height="18" x="1530" y="130" fill="#2a9d8f" rx="6"/><rect width="200" height="18" x="1530" y="165" fill="#2a9d8f" rx="6"/><rect width="220" height="18" x="1530" y="205" fill="#e76f51" rx="6"/><rect width="180" height="18" x="1530" y="240" fill="#e76f51" rx="6"/></svg>
