<svg xmlns="http://www.w3.org/2000/svg" width="1920" height="400" aria-label="Drupal module for media customizations in WYSIWYG editors" viewBox="0 0 1920 400"><path fill="#f2f6fa" d="M0 0h1920v400H0z"/><path fill="#1c3553" d="M0 340h1920v60H0z"/><rect width="460" height="220" x="120" y="90" fill="#fff" rx="22"/><rect width="340" height="16" x="160" y="130" fill="#b7c7d8" rx="6"/><rect width="300" height="16" x="160" y="155" fill="#b7c7d8" rx="6"/><rect width="300" height="80" x="160" y="185" fill="#e2ecf4" rx="10"/><circle cx="190" cy="215" r="8" fill="#1f5f8b"/><path fill="#1f5f8b" d="m180 245 20-25 20 25z"/><rect width="560" height="180" x="640" y="110" fill="#2a9d8f" rx="22"/><rect width="200" height="36" x="680" y="145" fill="#e9f5f2" rx="8"/><rect width="200" height="36" x="900" y="145" fill="#e9f5f2" rx="8"/><rect width="320" height="28" x="740" y="205" fill="#e9f5f2" rx="8"/><rect width="90" height="10" x="680" y="255" fill="#b7c7d8" rx="5"/><rect width="130" height="10" x="790" y="255" fill="#b7c7d8" rx="5"/><rect width="110" height="10" x="940" y="255" fill="#b7c7d8" rx="5"/><rect width="520" height="220" x="1280" y="90" fill="#fff" rx="22"/><rect width="380" height="16" x="1320" y="130" fill="#b7c7d8" rx="6"/><rect width="360" height="16" x="1320" y="155" fill="#b7c7d8" rx="6"/><rect width="380" height="100" x="1320" y="175" fill="#1f5f8b" rx="12"/></svg>
