<svg xmlns="http://www.w3.org/2000/svg" width="1920" height="400" aria-label="Events management platform supporting virtual and in-person events" viewBox="0 0 1920 400"><path fill="#f2f6fa" d="M0 0h1920v400H0z"/><path fill="#1c3553" d="M0 340h1920v60H0z"/><rect width="320" height="90" x="120" y="100" fill="#fff" rx="18"/><rect width="240" height="26" x="160" y="130" fill="#e2ecf4" rx="13"/><circle cx="380" cy="143" r="8" fill="#1f5f8b"/><rect width="320" height="90" x="120" y="210" fill="#fff" rx="18"/><rect width="200" height="26" x="160" y="240" fill="#e2ecf4" rx="13"/><rect width="30" height="26" x="370" y="240" fill="#b7c7d8" rx="13"/><rect width="620" height="220" x="520" y="90" fill="#2a9d8f" rx="22"/><rect width="200" height="36" x="560" y="130" fill="#e9f5f2" rx="8"/><rect width="200" height="36" x="780" y="130" fill="#e9f5f2" rx="8"/><rect width="360" height="30" x="620" y="190" fill="#e9f5f2" rx="15"/><rect width="90" height="10" x="560" y="255" fill="#b7c7d8" rx="5"/><rect width="120" height="10" x="670" y="255" fill="#b7c7d8" rx="5"/><rect width="100" height="10" x="810" y="255" fill="#b7c7d8" rx="5"/><rect width="80" height="10" x="930" y="255" fill="#b7c7d8" rx="5"/><rect width="600" height="220" x="1200" y="90" fill="#fff" rx="22"/><rect width="380" height="32" x="1240" y="130" fill="#1f5f8b" rx="16"/><rect width="260" height="18" x="1240" y="180" fill="#b7c7d8" rx="6"/><rect width="300" height="18" x="1240" y="210" fill="#b7c7d8" rx="6"/><rect width="160" height="26" x="1580" y="180" fill="#e76f51" rx="13"/><rect width="120" height="14" x="1580" y="215" fill="#b7c7d8" rx="7"/></svg>
