<svg xmlns="http://www.w3.org/2000/svg" width="1920" height="400" aria-label="Drupal module handling geolocation resolution and context" viewBox="0 0 1920 400"><path fill="#f2f6fa" d="M0 0h1920v400H0z"/><path fill="#1c3553" d="M0 340h1920v60H0z"/><rect width="360" height="180" x="120" y="110" fill="#fff" rx="22"/><rect width="260" height="30" x="160" y="145" fill="#1f5f8b" rx="6"/><rect width="220" height="18" x="160" y="190" fill="#b7c7d8" rx="6"/><rect width="200" height="18" x="160" y="220" fill="#b7c7d8" rx="6"/><rect width="560" height="200" x="560" y="100" fill="#2a9d8f" rx="22"/><rect width="200" height="36" x="600" y="135" fill="#e9f5f2" rx="10"/><rect width="200" height="36" x="830" y="135" fill="#e9f5f2" rx="10"/><rect width="360" height="28" x="660" y="195" fill="#e9f5f2" rx="14"/><rect width="90" height="10" x="600" y="255" fill="#b7c7d8" rx="5"/><rect width="120" height="10" x="710" y="255" fill="#b7c7d8" rx="5"/><rect width="100" height="10" x="850" y="255" fill="#b7c7d8" rx="5"/><rect width="80" height="10" x="970" y="255" fill="#b7c7d8" rx="5"/><rect width="600" height="220" x="1200" y="90" fill="#fff" rx="22"/><rect width="360" height="32" x="1240" y="130" fill="#1f5f8b" rx="16"/><rect width="260" height="18" x="1240" y="180" fill="#b7c7d8" rx="6"/><rect width="300" height="18" x="1240" y="210" fill="#b7c7d8" rx="6"/><circle cx="1680" cy="170" r="34" fill="none" stroke="#e76f51" stroke-width="4"/><ellipse cx="1680" cy="170" fill="none" stroke="#e76f51" stroke-width="3" rx="14" ry="34"/><ellipse cx="1680" cy="170" fill="none" stroke="#e76f51" stroke-width="3" rx="34" ry="14"/><path stroke="#e76f51" stroke-width="3" d="M1646 170h68"/></svg>
