<svg xmlns="http://www.w3.org/2000/svg" width="1920" height="400" aria-label="Drupal module providing layout building capabilities" viewBox="0 0 1920 400"><path fill="#f2f6fa" d="M0 0h1920v400H0z"/><path fill="#1c3553" d="M0 340h1920v60H0z"/><rect width="300" height="60" x="120" y="110" fill="#fff" rx="14"/><rect width="240" height="20" x="150" y="130" fill="#e2ecf4" rx="10"/><rect width="300" height="60" x="120" y="190" fill="#fff" rx="14"/><rect width="200" height="20" x="150" y="210" fill="#e2ecf4" rx="10"/><rect width="620" height="200" x="500" y="100" fill="#2a9d8f" rx="22"/><rect width="260" height="36" x="540" y="135" fill="#e9f5f2" rx="18"/><rect width="260" height="36" x="820" y="135" fill="#e9f5f2" rx="18"/><rect width="420" height="28" x="600" y="195" fill="#e9f5f2" rx="14"/><rect width="100" height="10" x="540" y="255" fill="#b7c7d8" rx="5"/><rect width="140" height="10" x="660" y="255" fill="#b7c7d8" rx="5"/><rect width="120" height="10" x="820" y="255" fill="#b7c7d8" rx="5"/><rect width="80" height="10" x="960" y="255" fill="#b7c7d8" rx="5"/><rect width="600" height="220" x="1200" y="90" fill="#fff" rx="22"/><rect width="520" height="60" x="1240" y="120" fill="#1f5f8b" rx="12"/><rect width="260" height="80" x="1240" y="190" fill="#b7c7d8" rx="12"/><rect width="240" height="80" x="1520" y="190" fill="#b7c7d8" rx="12"/></svg>
