<svg xmlns="http://www.w3.org/2000/svg" width="1920" height="400" aria-label="Drupal module providing login and authentication customizations" viewBox="0 0 1920 400"><path fill="#f2f6fa" d="M0 0h1920v400H0z"/><path fill="#1c3553" d="M0 340h1920v60H0z"/><rect width="340" height="160" x="120" y="120" fill="#fff" rx="22"/><rect width="240" height="28" x="160" y="155" fill="#b7c7d8" rx="6"/><rect width="200" height="18" x="160" y="195" fill="#b7c7d8" rx="6"/><rect width="620" height="200" x="520" y="100" fill="#2a9d8f" rx="22"/><rect width="220" height="36" x="560" y="135" fill="#e9f5f2" rx="18"/><rect width="220" height="36" x="820" y="135" fill="#e9f5f2" rx="18"/><rect width="400" height="28" x="620" y="195" fill="#e9f5f2" rx="14"/><rect width="100" height="10" x="560" y="255" fill="#b7c7d8" rx="5"/><rect width="140" height="10" x="680" y="255" fill="#b7c7d8" rx="5"/><rect width="120" height="10" x="840" y="255" fill="#b7c7d8" rx="5"/><rect width="80" height="10" x="980" y="255" fill="#b7c7d8" rx="5"/><rect width="600" height="220" x="1200" y="90" fill="#fff" rx="22"/><rect width="320" height="32" x="1240" y="130" fill="#1f5f8b" rx="16"/><rect width="260" height="18" x="1240" y="180" fill="#b7c7d8" rx="6"/><rect width="300" height="18" x="1240" y="210" fill="#b7c7d8" rx="6"/><circle cx="1700" cy="165" r="18" fill="#e76f51"/><rect width="24" height="36" x="1688" y="185" fill="#e76f51" rx="12"/></svg>
