<svg xmlns="http://www.w3.org/2000/svg" width="1920" height="400" aria-label="Production deployment on Acquia hosting" viewBox="0 0 1920 400"><path fill="#f2f6fa" d="M0 0h1920v400H0z"/><path fill="#1c3553" d="M0 340h1920v60H0z"/><rect width="260" height="140" x="80" y="150" fill="#e2ecf4" rx="18"/><rect width="200" height="30" x="110" y="180" fill="#1f5f8b" rx="6"/><rect width="140" height="30" x="110" y="220" fill="#1f5f8b" rx="6"/><rect width="40" height="200" x="380" y="120" fill="#b7c7d8" rx="20"/><rect width="1030" height="260" x="460" y="70" fill="#fff" rx="22"/><rect width="900" height="70" x="520" y="100" fill="#e2ecf4" rx="14"/><rect width="140" height="30" x="560" y="120" fill="#2a9d8f" rx="6"/><rect width="140" height="30" x="720" y="120" fill="#2a9d8f" rx="6"/><rect width="140" height="30" x="880" y="120" fill="#2a9d8f" rx="6"/><rect width="620" height="100" x="520" y="190" fill="#1f5f8b" rx="16"/><rect width="160" height="50" x="560" y="220" fill="#eef4f8" rx="10"/><rect width="160" height="50" x="740" y="220" fill="#eef4f8" rx="10"/><rect width="160" height="50" x="920" y="220" fill="#eef4f8" rx="10"/><rect width="260" height="100" x="1160" y="190" fill="#e2ecf4" rx="16"/><ellipse cx="1200" cy="218" fill="#1f5f8b" rx="22" ry="8"/><path fill="#1f5f8b" d="M1178 218h44v26h-44z"/><ellipse cx="1200" cy="244" fill="#1f5f8b" rx="22" ry="8"/><rect width="80" height="50" x="1260" y="220" fill="#e76f51" rx="10"/><circle cx="1375" cy="245" r="22" fill="#2a9d8f"/><path fill="#018dc6" fill-rule="evenodd" d="M1626.771 168.607c-1.218 1.31-2.673 1.849-4.56 1.849-1.73 0-3.223-.655-4.285-1.965-1.061-1.31-1.612-2.89-1.612-4.892 0-1.85.55-3.429 1.73-4.739s2.673-1.964 4.285-1.964c1.887 0 3.381.655 4.442 1.964 1.062 1.31 1.73 2.89 1.73 4.893 0 1.926-.51 3.544-1.73 4.854m1.494-11.48-.825-.81c-1.73-1.848-3.774-2.773-6.054-2.773-2.556 0-4.836.925-6.447 2.89-1.73 1.849-2.556 4.353-2.556 7.126 0 2.89.944 5.393 2.556 7.243 1.73 1.849 4.049 2.889 6.604 2.889 2.162 0 4.05-.925 5.897-2.504l.668-.655v2.658H1632v-19.108h-3.892v3.044zm-30.152 6.587c0 3.968-2.005 6.472-5.386 6.472-3.38 0-5.385-2.504-5.385-6.472v-9.63h-3.892v9.63c0 5.779 3.892 10.016 9.277 10.016 5.386 0 9.278-4.199 9.278-10.016v-9.63h-3.892zm7.548 9.477h3.892v-19.108h-3.892zm-25.003-9.323c0-5.547-4.442-9.9-9.945-10.131-.118 0-.276.115-.118.27.393.808 1.336 2.619 2.948 3.813 2.162 1.58 3.38 3.544 3.38 5.933 0 3.043-2.437 6.472-6.446 6.472-4.05 0-6.448-3.429-6.448-6.472 0-2.389 1.337-4.353 3.381-5.933 1.612-1.31 2.674-2.997 2.949-3.806.118-.115 0-.27-.118-.27-5.661.116-10.103 4.461-10.103 9.97 0 4.469 3.891 9.747 10.22 9.747 2.831 0 5.23-.81 6.998-2.235l2.005 1.85h5.661l-5.307-4.893c.55-1.156.943-2.62.943-4.315m-53.385 2.62 4.56-9.9 4.6 9.9zm4.442-16.488a1.67 1.67 0 0 0-1.494.925L1520 173.19h4.05l1.493-3.159h12.383l1.494 3.159h4.05l-10.143-22.112a1.79 1.79 0 0 0-1.612-1.079m21.386 7.396c1.73 0 3.38.655 4.442 1.695.393-1.194 1.061-2.234 1.887-3.313a10.4 10.4 0 0 0-6.33-2.118c-5.66.038-10.378 4.545-10.378 10.208 0 5.548 4.56 10.132 10.34 10.132 2.437 0 4.56-.809 6.329-2.119-.826-1.04-1.337-2.119-1.887-3.313-1.219 1.04-2.674 1.695-4.443 1.695-3.616 0-6.604-2.889-6.604-6.472.04-3.505 2.988-6.395 6.644-6.395"/></svg>
