<svg xmlns="http://www.w3.org/2000/svg" width="1920" height="400" aria-label="Continuous delivery pipeline banner" viewBox="0 0 1920 400"><path fill="#eef4f8" d="M0 0h1920v400H0z"/><path fill="#0f3d63" d="M0 340h1920v60H0z"/><rect width="200" height="120" x="100" y="160" fill="#1f5f8b" rx="16"/><circle cx="150" cy="220" r="8" fill="#fff"/><circle cx="190" cy="200" r="8" fill="#fff"/><circle cx="230" cy="240" r="8" fill="#fff"/><path stroke="#fff" stroke-width="3" d="m150 220 40-20M190 200l40 40"/><rect width="960" height="10" x="340" y="215" fill="#c3d9ea" rx="5"/><rect width="90" height="90" x="380" y="170" fill="#2a9d8f" rx="14"/><circle cx="425" cy="215" r="14" fill="#eef4f8"/><rect width="80" height="60" x="540" y="150" fill="#1f5f8b" rx="12"/><rect width="80" height="60" x="540" y="240" fill="#1f5f8b" rx="12"/><path stroke="#1f5f8b" stroke-width="4" d="m470 215 70-35M470 215l70 55"/><rect width="40" height="40" x="660" y="190" fill="#e9c46a" rx="6"/><rect width="90" height="90" x="760" y="170" fill="#2a9d8f" rx="14"/><path fill="none" stroke="#eef4f8" stroke-linecap="round" stroke-linejoin="round" stroke-width="6" d="m780 215 20 20 30-40"/><rect width="30" height="60" x="920" y="185" fill="#e76f51" rx="8"/><path fill="#1f5f8b" d="m1000 205 40-20v40z"/><path fill="#1f5f8b" d="M980 210h40v10h-40z"/><rect width="360" height="180" x="1080" y="140" fill="#fff" rx="20"/><rect width="70" height="70" x="1110" y="180" fill="#1f5f8b" rx="10"/><rect width="70" height="70" x="1205" y="180" fill="#1f5f8b" rx="10"/><rect width="70" height="70" x="1300" y="180" fill="#1f5f8b" rx="10"/><path fill="none" stroke="#2a9d8f" stroke-linecap="round" stroke-width="6" d="M1440 210q100-90 200-40"/><g transform="translate(1680 170)"><circle r="42" fill="#1f5f8b"/><path fill="none" stroke="#eef4f8" stroke-linecap="round" stroke-linejoin="round" stroke-width="4" d="M-14 4-4-6 6 10l10-20"/></g></svg>