<svg xmlns="http://www.w3.org/2000/svg" width="1920" height="400" aria-label="Drupal module providing webform data enrichment via Neutrino"><path fill="#f2f6fa" d="M0 0h1920v400H0z"/><path fill="#1c3553" d="M0 340h1920v60H0z"/><rect width="420" height="200" x="120" y="100" fill="#fff" rx="22"/><rect width="240" height="18" x="150" y="130" fill="#b7c7d8" rx="6"/><rect width="220" height="18" x="150" y="165" fill="#b7c7d8" rx="6"/><rect width="200" height="18" x="150" y="200" fill="#b7c7d8" rx="6"/><rect width="560" height="180" x="580" y="110" fill="#2a9d8f" rx="22"/><rect width="200" height="36" x="620" y="145" fill="#e9f5f2" rx="10"/><rect width="200" height="36" x="840" y="145" fill="#e9f5f2" rx="10"/><rect width="320" height="28" x="700" y="200" fill="#e9f5f2" rx="8"/><rect width="600" height="220" x="1200" y="90" fill="#fff" rx="22"/><rect width="260" height="16" x="1240" y="120" fill="#1f5f8b" rx="4"/><rect width="240" height="16" x="1240" y="145" fill="#b7c7d8" rx="4"/><rect width="220" height="16" x="1240" y="170" fill="#b7c7d8" rx="4"/><rect width="200" height="16" x="1240" y="195" fill="#b7c7d8" rx="4"/><rect width="230" height="16" x="1240" y="220" fill="#b7c7d8" rx="4"/><circle cx="1700" cy="150" r="22" fill="#e76f51"/><path stroke="#fff" stroke-width="4" d="M1700 140v20M1690 150h20"/></svg>
