<svg xmlns="http://www.w3.org/2000/svg" width="1920" height="400" aria-label="Automated testing abstract banner" viewBox="0 0 1920 400"><path fill="#eef4f8" d="M0 0h1920v400H0z"/><path fill="#0f3d63" d="M0 340h1920v60H0z"/><rect width="500" height="170" x="140" y="160" fill="#1f5f8b" rx="14"/><rect width="420" height="110" x="180" y="190" fill="#fff" rx="8"/><circle cx="390" cy="245" r="44" fill="#d6e6f2"/><ellipse cx="390" cy="250" fill="#1f5f8b" rx="18" ry="26"/><path stroke="#1f5f8b" stroke-width="4" d="m372 228-16-16M408 228l16-16"/><rect width="300" height="210" x="760" y="110" fill="#fff" rx="18"/><rect width="240" height="14" x="790" y="150" fill="#c3d9ea" rx="7"/><rect width="240" height="14" x="790" y="195" fill="#c3d9ea" rx="7"/><rect width="240" height="14" x="790" y="240" fill="#c3d9ea" rx="7"/><path fill="none" stroke="#2a9d8f" stroke-width="6" d="m760 155 12 10 18-25M760 200l12 10 18-25M760 245l12 10 18-25"/><g transform="translate(1280 220)"><circle r="52" fill="#1f5f8b"/><circle r="22" fill="#eef4f8"/><path fill="#1f5f8b" d="M-5-76H5v20H-5zM-5 56H5v20H-5zM56-5h20V5H56zM-76-5h20V5h-20z"/></g></svg>