<svg xmlns="http://www.w3.org/2000/svg" width="1920" height="400" aria-label="Local development guide architecture banner" viewBox="0 0 1920 400"><path fill="#f2f6fa" d="M0 0h1920v400H0z"/><path fill="#1c3553" d="M0 340h1920v60H0z"/><rect width="320" height="180" x="80" y="150" fill="#1f5f8b" rx="18"/><rect width="240" height="110" x="120" y="190" fill="#fff" rx="10"/><rect width="90" height="20" x="140" y="210" fill="#b7c7d8" rx="4"/><rect width="120" height="20" x="140" y="240" fill="#b7c7d8" rx="4"/><rect width="70" height="20" x="140" y="270" fill="#b7c7d8" rx="4"/><rect width="900" height="90" x="440" y="100" fill="#e2ecf4" rx="16"/><rect width="150" height="40" x="480" y="125" fill="#2a9d8f" rx="10"/><rect width="150" height="40" x="650" y="125" fill="#2a9d8f" rx="10"/><rect width="150" height="40" x="820" y="125" fill="#2a9d8f" rx="10"/><rect width="150" height="40" x="990" y="125" fill="#2a9d8f" rx="10"/><rect width="900" height="90" x="440" y="210" fill="#fff" rx="16"/><rect width="140" height="50" x="480" y="230" fill="#1f5f8b" rx="10"/><rect width="140" height="50" x="650" y="230" fill="#1f5f8b" rx="10"/><rect width="140" height="50" x="820" y="230" fill="#e76f51" rx="10"/><rect width="140" height="50" x="990" y="230" fill="#1f5f8b" rx="10"/><ellipse cx="1060" cy="238" fill="#eef4f8" rx="18" ry="6"/><path fill="#eef4f8" d="M1042 238h36v20h-36z"/><ellipse cx="1060" cy="258" fill="#eef4f8" rx="18" ry="6"/><rect width="360" height="120" x="1400" y="140" fill="#e2ecf4" rx="18"/><rect width="100" height="20" x="1440" y="170" fill="#1f5f8b" rx="6"/><rect width="160" height="20" x="1440" y="200" fill="#1f5f8b" rx="6"/><rect width="120" height="20" x="1440" y="230" fill="#1f5f8b" rx="6"/><circle cx="1680" cy="200" r="26" fill="#2a9d8f"/><path fill="#fff" d="M1674 182h12v36h-12z"/></svg>
