<svg xmlns="http://www.w3.org/2000/svg" width="1920" height="400" aria-label="Layered PHP object oriented architecture inspired by Drupal 11" viewBox="0 0 1920 400"><path fill="#f2f6fa" d="M0 0h1920v400H0z"/><path fill="#1c3553" d="M0 340h1920v60H0z"/><rect width="1480" height="70" x="220" y="70" fill="#e2ecf4" rx="14"/><rect width="160" height="30" x="260" y="90" fill="#1f5f8b" rx="6"/><rect width="160" height="30" x="450" y="90" fill="#1f5f8b" rx="6"/><rect width="160" height="30" x="640" y="90" fill="#1f5f8b" rx="6"/><rect width="1480" height="80" x="220" y="160" fill="#fff" rx="16"/><rect width="900" height="40" x="300" y="180" fill="#2a9d8f" rx="10"/><rect width="90" height="24" x="320" y="188" fill="#e9f5f2" rx="6"/><rect width="90" height="24" x="430" y="188" fill="#e9f5f2" rx="6"/><rect width="90" height="24" x="540" y="188" fill="#e9f5f2" rx="6"/><rect width="90" height="24" x="650" y="188" fill="#e9f5f2" rx="6"/><rect width="1480" height="70" x="220" y="260" fill="#e2ecf4" rx="14"/><rect width="120" height="30" x="300" y="280" fill="#1f5f8b" rx="6"/><rect width="120" height="30" x="440" y="280" fill="#1f5f8b" rx="6"/><rect width="70" height="50" x="620" y="270" fill="#e76f51" rx="8"/><rect width="70" height="50" x="710" y="270" fill="#e76f51" rx="8"/><rect width="70" height="50" x="800" y="270" fill="#e76f51" rx="8"/><rect width="200" height="24" x="980" y="278" fill="#b7c7d8" rx="12"/><rect width="360" height="70" x="1300" y="260" fill="#1f5f8b" rx="14"/><ellipse cx="1360" cy="288" fill="#eef4f8" rx="26" ry="10"/><path fill="#eef4f8" d="M1334 288h52v22h-52z"/><ellipse cx="1360" cy="310" fill="#eef4f8" rx="26" ry="10"/><rect width="70" height="34" x="1430" y="278" fill="#eef4f8" rx="6"/></svg>