<svg xmlns="http://www.w3.org/2000/svg" width="1920" height="400" aria-label="Development guide overview banner" viewBox="0 0 1920 400"><path fill="#f2f6fa" d="M0 0h1920v400H0z"/><path fill="#1c3553" d="M0 340h1920v60H0z"/><rect width="1200" height="160" x="360" y="120" fill="#fff" rx="22"/><rect width="1080" height="100" x="420" y="150" fill="#e2ecf4" rx="16"/><rect width="220" height="50" x="460" y="175" fill="#1f5f8b" rx="10"/><rect width="220" height="50" x="710" y="175" fill="#1f5f8b" rx="10"/><rect width="220" height="50" x="960" y="175" fill="#1f5f8b" rx="10"/><rect width="180" height="80" x="140" y="140" fill="#e2ecf4" rx="14"/><rect width="140" height="30" x="160" y="165" fill="#2a9d8f" rx="6"/><rect width="180" height="80" x="140" y="240" fill="#e2ecf4" rx="14"/><rect width="140" height="30" x="160" y="265" fill="#e76f51" rx="6"/><rect width="180" height="80" x="1580" y="140" fill="#e2ecf4" rx="14"/><rect width="140" height="30" x="1600" y="165" fill="#2a9d8f" rx="6"/><rect width="180" height="80" x="1580" y="240" fill="#e2ecf4" rx="14"/><rect width="140" height="30" x="1600" y="265" fill="#1f5f8b" rx="6"/><rect width="40" height="12" x="320" y="180" fill="#b7c7d8" rx="6"/><rect width="40" height="12" x="1560" y="180" fill="#b7c7d8" rx="6"/><rect width="40" height="12" x="320" y="270" fill="#b7c7d8" rx="6"/><rect width="40" height="12" x="1560" y="270" fill="#b7c7d8" rx="6"/></svg>
